PathFileType	4	(X/Y/Z)	./resultDataOpenSim/trcMotMarkerGrf/sub06/qtm-04-06.trc
DataRate	CameraRate	NumFrames	NumMarkers	Units	OrigDataRate	OrigDataStartFrame	OrigNumFrames
250.000000	250.000000	5	24	m	250.000000	209	555
Frame#	Time	L.Toe.Tip			R.Toe.Tip			L.Ankle.Lat			R.Ankle.Lat			L.Ankle.Med			R.Ankle.Med			L.Heel			R.Heel			L.Knee.Lat			R.Knee.Lat			L.Knee.Med			R.Knee.Med			L.Thigh.Upper			R.Thigh.Upper			L.ASIS			R.ASIS			V.Sacral			L.Acromium			R.Acromium			C7			L.Elbow			R.Elbow			L.Wrist.Lat			R.Wrist.Lat
		X1	Y1	Z1	X2	Y2	Z2	X3	Y3	Z3	X4	Y4	Z4	X5	Y5	Z5	X6	Y6	Z6	X7	Y7	Z7	X8	Y8	Z8	X9	Y9	Z9	X10	Y10	Z10	X11	Y11	Z11	X12	Y12	Z12	X13	Y13	Z13	X14	Y14	Z14	X15	Y15	Z15	X16	Y16	Z16	X17	Y17	Z17	X18	Y18	Z18	X19	Y19	Z19	X20	Y20	Z20	X21	Y21	Z21	X22	Y22	Z22	X23	Y23	Z23	X24	Y24	Z24

209	0.832	0.032032063	-0.039826066	0.0049790474	-0.40569495	0.098189962	0.13700925	-0.088785279	-0.010271566	-0.021388591	-0.41920885	0.23597119	0.15453576	-0.092029461	0.0069581943	0.065609603	-0.37826762	0.22067241	0.07567703	-0.16742546	-0.033542812	0.021836952	-0.44633667	0.27689907	0.088370591	0.020479186	0.34730657	-0.055214253	-0.069195899	0.33960835	0.2199838	-0.010114406	0.35148144	0.063074035	-0.078937054	0.32273221	0.085955408	-0.11024783	0.72028311	-0.14300605	-0.17219535	0.69132463	0.19558743	-0.051184892	0.76217468	-0.088799227	-0.077342956	0.75218504	0.15933874	-0.25345	0.83243639	0.023339026	-0.12520989	1.2324416	-0.16216142	-0.12402746	1.2330189	0.20222469	-0.20124988	1.2750095	0.018838588	-0.2196128	0.9327038	-0.2161065	-0.17587365	0.92495237	0.29789096	-0.10117317	0.72181814	-0.26812452	0.016634819	0.77112943	0.33364185
210	0.836	0.032031398	-0.039820638	0.0049925951	-0.38719565	0.098874653	0.13845752	-0.088795752	-0.010131891	-0.021428338	-0.40386616	0.23612579	0.15534658	-0.092077964	0.0071812618	0.065534785	-0.36294854	0.22120268	0.076369612	-0.16744332	-0.033376592	0.021722259	-0.43245062	0.27616444	0.089111111	0.021070388	0.34747668	-0.055121407	-0.055362842	0.34402589	0.21993065	-0.01026314	0.35149419	0.063004521	-0.065181192	0.32644261	0.085888357	-0.10561423	0.72175554	-0.14326019	-0.16565171	0.69409341	0.19554888	-0.0458303	0.76356781	-0.089383157	-0.071290927	0.75463172	0.15893005	-0.24825963	0.83480426	0.023311052	-0.11879078	1.2348856	-0.16184602	-0.11815664	1.2349671	0.20247639	-0.19477524	1.2771334	0.019047244	-0.21209709	0.93459041	-0.21678735	-0.1722667	0.92708261	0.29728889	-0.090828874	0.7247549	-0.2668292	0.017791984	0.77092601	0.3344834
211	0.84	0.032025915	-0.039815535	0.0049931537	-0.36854924	0.099402273	0.13987984	-0.088793021	-0.0099737973	-0.021454276	-0.3884609	0.23604785	0.15620679	-0.092153657	0.0074107235	0.065423238	-0.34757889	0.22154779	0.077158125	-0.16746681	-0.033220305	0.02160537	-0.41858912	0.27514111	0.089914493	0.021541111	0.34765399	-0.055091086	-0.041647258	0.34862018	0.21978916	-0.010771484	0.35151068	0.062916481	-0.05134272	0.33044965	0.085540958	-0.10078371	0.72331674	-0.14351495	-0.1594586	0.69685195	0.19531544	-0.040518732	0.76501433	-0.089938704	-0.06512746	0.75712694	0.15847379	-0.24264623	0.83709187	0.023210545	-0.11236969	1.2373407	-0.16148939	-0.11221078	1.2369311	0.2026934	-0.18831234	1.2792629	0.019281195	-0.20449341	0.93650442	-0.21756777	-0.16867181	0.9292708	0.29671687	-0.080539257	0.72776924	-0.26552055	0.018869221	0.77081461	0.33529875
212	0.844	0.032017746	-0.039809175	0.0049793262	-0.34974118	0.099766873	0.14126782	-0.088769893	-0.0098036415	-0.02145585	-0.37295129	0.23577622	0.15713799	-0.09219653	0.0076704882	0.065307656	-0.33213562	0.22169374	0.078032777	-0.16749518	-0.033068062	0.02150769	-0.40475205	0.27380437	0.090791425	0.021939769	0.34784788	-0.055103069	-0.028060757	0.35336546	0.21956339	-0.011024526	0.35160232	0.062850838	-0.036836857	0.33474204	0.084861277	-0.095854363	0.72494148	-0.14373992	-0.15345866	0.69959829	0.19516503	-0.035242892	0.76653928	-0.090459222	-0.058843786	0.75967253	0.15797763	-0.23666331	0.83939627	0.023164619	-0.10594978	1.2398062	-0.16109663	-0.10620152	1.2389041	0.20288345	-0.18186241	1.2813885	0.019526417	-0.19691544	0.93845924	-0.2182882	-0.16509387	0.93151728	0.29615887	-0.070334383	0.73083946	-0.2642219	0.019877046	0.77079194	0.33607847
213	0.848	0.032008555	-0.039800087	0.0049508064	-0.33069375	0.10002838	0.14265317	-0.088745328	-0.0096289331	-0.02145562	-0.35748396	0.23526686	0.15808346	-0.092162242	0.0079783247	0.065190694	-0.31672353	0.2216292	0.078950979	-0.16752256	-0.032901042	0.021447926	-0.39096136	0.2721301	0.091715699	0.022307078	0.34806989	-0.055137872	-0.014621761	0.3582391	0.21927222	-0.010430431	0.35179426	0.062743436	-0.021428514	0.33923445	0.083961004	-0.090890985	0.72659907	-0.14389214	-0.14735504	0.70236643	0.19533799	-0.029990401	0.76815551	-0.090935476	-0.052473696	0.76225764	0.1574441	-0.23035567	0.84173831	0.023255738	-0.099566421	1.2423022	-0.16068986	-0.10013577	1.2408761	0.20305258	-0.17542678	1.2835032	0.019775349	-0.18944459	0.94046265	-0.21882685	-0.1615447	0.93382477	0.29560255	-0.060234855	0.73395082	-0.26293583	0.020828803	0.77085384	0.33681427
